Release Info:

General

Format                                   : Matroska
Format version                           : Version 2
File size                                : 811 MiB
Duration                                 : 2h 35mn
Overall bit rate                         : 730 Kbps
Movie name                               : Jab Tak Hai Jaan


Video
ID                                       : 1
Format                                   : MPEG-4 Visual
Format profile                           : Advanced Simple@L5
Format settings, BVOP                    : Yes
Format settings, QPel                    : No
Format settings, GMC                     : No warppoints
Format settings, Matrix                  : Default (H.263)
Codec ID                                 : V_MS/VFW/FOURCC / XVID
Codec ID/Hint                            : XviD
Duration                                 : 2h 35mn
Bit rate                                 : 588 Kbps
Width                                    : 592 pixels
Height                                   : 272 pixels
Display aspect ratio                     : 2.2:1
Frame rate mode                          : Constant
Frame rate                               : 25.000 fps
Color space                              : YUV
Chroma subsampling                       : 4:2:0
Bit depth                                : 8 bits
Scan type                                : Progressive
Compression mode                         : Lossy
Bits/(Pixel*Frame)                       : 0.146
Stream size                              : 652 MiB (80%)
Title                                    : Jab Tak Hai Jaan
Language                                 : Hindi
Default                                  : Yes
Forced                                   : No

Audio
ID                                       : 2
Format                                   : MPEG Audio
Format version                           : Version 1
Format profile                           : Layer 3
Mode                                     : Joint stereo
Mode extension                           : MS Stereo
Muxing mode                              : Header stripping
Codec ID                                 : A_MPEG/L3
Codec ID/Hint                            : MP3
Duration                                 : 2h 35mn
Bit rate mode                            : Constant
Bit rate                                 : 128 Kbps
Channel(s)                               : 2 channels
Sampling rate                            : 44.1 KHz
Compression mode                         : Lossy
Stream size                              : 142 MiB (18%)
Title                                    : Jab Tak Hai Jaan
Writing library                          : LAME3.98.2
Language                                 : Hindi
Default                                  : Yes
Forced                                   : No

Source:
credit to original movie ripper DesiHome (Thanks)

IMDB Info:

An ex-army man, leading a double life in London, must choose between his wife and muse.

Director: Yash Chopra
Writers: Devika Bhagat (screenplay), Aditya Chopra (screenplay),

Stars: Shah Rukh Khan, Katrina Kaif and Anushka Sharma

Genres: Drama | Romance
 
http://www.imdb.com/title/tt2176013/

Screen Shot:
 
http://www.shotpix.com/images/86155615575990935455.png 
http://www.shotpix.com/images/09599074606235155459.png 
http://www.shotpix.com/images/04569920129502898198.png 
http://www.shotpix.com/images/88424978538005229196.png 
http://www.shotpix.com/images/70954427589325970946.png 
http://www.shotpix.com/images/66318825941701341928.png 
http://www.shotpix.com/images/06150730669670989242.png 
http://www.shotpix.com/images/96749897586432073234.png 
http://www.shotpix.com/images/23899813889620319377.png 
http://www.shotpix.com/images/11211038481006689574.png 
http://www.shotpix.com/images/93996633475585678232.png
